# AST/ASF file generated using VICON BodyLanguage
# -----------------------------------------------
:version 1.10
:name VICON
:units
  mass 1.0
  length 0.45
  angle deg
:documentation
   .ast/.asf automatically generated from VICON data using
   VICON BodyBuilder and BodyLanguage model FoxedUp or BRILLIANT.MOD
:root
   order TX TY TZ RX RY RZ
   axis XYZ
   position 0 0 0  
   orientation 0 0 0 
:bonedata
  begin
     id 1 
     name lhipjoint
     direction 0.707368 -0.647095 0.284426 
     length 2.60678 
     axis 0 0 0  XYZ
  end
  begin
     id 2 
     name lfemur
     direction 0.34202 -0.939693 0  
     length 6.63812  
     axis 0 0 20  XYZ
    dof rx ry rz
    limits (-160.0 20.0)
           (-70.0 70.0)
           (-60.0 70.0)
  end
  begin
     id 3 
     name ltibia
     direction 0.34202 -0.939693 0   
     length 7.51178   
     axis 0 0 20   XYZ
    dof rx
    limits (-10.0 170.0)
  end
  begin
     id 4 
     name lfoot
     direction 0.121251 -0.333133 0.935051   
     length 1.83716   
     axis -90 7.62852e-016 20   XYZ
    dof rx rz
    limits (-45.0 90.0)
           (-70.0 20.0)
  end
  begin
     id 5 
     name ltoes
     direction 1.53611e-011 -4.21962e-011 1   
     length 0.916133   
     axis -90 7.62852e-016 20   XYZ
    dof rx
    limits (-90.0 20.0)
  end
  begin
     id 6 
     name rhipjoint
     direction -0.692419 -0.660507 0.290321   
     length 2.55385  
     axis 0 0 0  XYZ 
  end
  begin
     id 7 
     name rfemur
     direction -0.34202 -0.939693 0   
     length 7.29079   
     axis 0 0 -20   XYZ
    dof rx ry rz
    limits (-160.0 20.0)
           (-70.0 70.0)
           (-70.0 60.0)
  end
  begin
     id 8 
     name rtibia
     direction -0.34202 -0.939693 0   
     length 7.47143   
     axis 0 0 -20   XYZ
    dof rx
    limits (-10.0 170.0)
 end
 begin
     id 9 
     name rfoot
     direction -0.119907 -0.329441 0.936532   
     length 1.79439  
     axis -90 -7.62852e-016 -20   XYZ
    dof rx rz
    limits (-45.0 90.0)
           (-20.0 70.0)
  end
  begin
     id 10 
     name rtoes
     direction -1.53571e-011 -4.21961e-011 1   
     length 0.896039   
     axis -90 -7.62852e-016 -20   XYZ
    dof rx
    limits (-90.0 20.0)
  end
  begin
     id 11 
     name lowerback
     direction 0.0367721 0.992912 -0.113016   
     length 1.73542   
     axis 0 0 0   XYZ
    dof rx ry rz
    limits (-20.0 45.0)
           (-30.0 30.0)
           (-30.0 30.0)
  end
  begin
     id 12 
     name upperback
     direction -0.000314626 0.990678 0.136227   
     length 1.7514   
     axis 0 0 0   XYZ
    dof rx ry rz
    limits (-20.0 45.0)
           (-30.0 30.0)
           (-30.0 30.0)
  end
  begin
     id 13 
     name thorax
     direction -0.0226159 0.981151 0.191917   
     length 1.71471   
     axis 0 0 0   XYZ
    dof rx ry rz
    limits (-20.0 45.0)
           (-30.0 30.0)
           (-30.0 30.0)
  end
  begin
     id 14 
     name lowerneck
     direction 0.0219333 0.998071 0.0580739   
     length 1.65882   
     axis 0 0 0   XYZ
    dof rx ry rz
    limits (-20.0 45.0)
           (-30.0 30.0)
           (-30.0 30.0)
  end
  begin
     id 15 
     name upperneck
     direction 0.0384529 0.980058 -0.194957   
     length 1.6612   
     axis 0 0 0   XYZ
    dof rx ry rz
    limits (-20.0 45.0)
           (-30.0 30.0)
           (-30.0 30.0)
  end
  begin
     id 16
     name head
     direction 0.00592123 0.997421 -0.0715234  
     length 1.68077  
     axis 0 0 0   XYZ
    dof rx ry rz
    limits (-20.0 45.0)
           (-30.0 30.0)
           (-30.0 30.0)
  end
  begin
     id 17 
     name lclavicle
     direction 0.904803 0.417826 0.0821728  
     length 3.42227  
     axis 0 0 0   XYZ
    dof ry rz
    limits (-20.0 10.0)
           (0.0 20.0)
  end
  begin
     id 18 
     name lhumerus
     direction 1 -4.48965e-011 -2.68786e-027   
     length 5.11878   
     axis -180 -30 -90   XYZ
    dof rx ry rz
    limits (-60.0 90.0)
           (-90.0 90.0)
           (-90.0 90.0)
  end
  begin
     id 19
     name lradius
     direction 1 -4.48965e-011 2.61168e-028   
     length 3.59971   
     axis -180 -30 -90   XYZ
    dof rx
    limits (-10.0 170.0)
  end
  begin
     id 20
     name lwrist
     direction 1 -4.48965e-011 1.58672e-027   
     length 1.79985   
     axis -1.65735e-015 90 90   XYZ
    dof ry
    limits (-180.0 0.0)
 end
  begin
     id 21 
     name lhand
     direction 1 -4.48942e-011 3.17344e-027   
     length 0.62877   
     axis -2.02492e-015 90 90   XYZ
    dof rx rz
    limits (-90.0 90.0)
           (-45.0 45.0)
  end
  begin
     id 22 
     name lfingers
     direction 1 -4.49011e-011 6.34687e-027   
     length 0.506931   
     axis -4.04985e-015 90 90   XYZ
    dof rx
    limits (0.0 90.0)
  end
  begin
     id 23
     name lthumb
     direction 0.707107 -6.34982e-011 0.707107   
     length 0.727854   
     axis -90 45 2.85299e-015   XYZ
    dof rx rz
    limits (-45.0 45.0)
           (-45.0 45.0)
  end
  begin
     id 24 
     name rclavicle
     direction -0.945647 0.32488 0.0143075   
     length 3.52737  
     axis 0 0 0   XYZ 
    dof ry rz
    limits (-10.0 20.0)
           (-20.0 0.0)
  end
  begin
     id 25 
     name rhumerus
     direction -1 -4.48962e-011 1.92182e-027  
     length 5.4902   
     axis -180 30 90   XYZ
    dof rx ry rz
    limits (-90.0 60.0)
           (-90.0 90.0)
           (-90.0 90.0)
  end
  begin
     id 26 
     name rradius
     direction -1 -4.48967e-011 -5.97193e-028   
     length 3.20659   
     axis -180 30 90   XYZ
    dof rx
    limits (-10.0 170.0)
  end
  begin
     id 27 
     name rwrist
     direction -1 -4.48964e-011 1.58672e-027   
     length 1.6033   
     axis -1.65735e-015 -90 -90   XYZ
    dof ry
    limits (-180.0 0.0)
  end
  begin
     id 28
     name rhand
     direction -1 -4.49006e-011 3.17344e-027   
     length 0.691885   
     axis -2.02492e-015 -90 -90   XYZ
    dof rx rz
    limits (-90.0 90.0)
           (-45.0 45.0)
  end
  begin
     id 29
     name rfingers
     direction -1 -4.48908e-011 6.34687e-027   
     length 0.557815   
     axis -4.04985e-015 -90 -90   XYZ
    dof rx
    limits (0.0 90.0)
  end
  begin
     id 30
     name rthumb
     direction -0.707107 -6.34999e-011 0.707107   
     length 0.800915   
     axis -90 -45 -2.85299e-015   XYZ
    dof rx rz
    limits (-45.0 45.0)
           (-45.0 45.0)
  end
:hierarchy
  begin
    root lhipjoint rhipjoint lowerback
    lhipjoint lfemur
    lfemur ltibia
    ltibia lfoot
    lfoot ltoes
    rhipjoint rfemur
    rfemur rtibia
    rtibia rfoot
    rfoot rtoes
    lowerback upperback
    upperback thorax
    thorax lowerneck lclavicle rclavicle
    lowerneck upperneck
    upperneck head
    lclavicle lhumerus
    lhumerus lradius
    lradius lwrist
    lwrist lhand lthumb
    lhand lfingers
    rclavicle rhumerus
    rhumerus rradius
    rradius rwrist
    rwrist rhand rthumb
    rhand rfingers
  end

#!OML:ASF I:\Actors\actors\Patient Classification 1\Patient 1\Session 1\Subject1.ASF
:FULLY-SPECIFIED
:DEGREES
56
root 0.624996 17.4533 9.32098 11.0657 -2.72534 -10.1228
lowerback -2.93697 0.21821 5.49593
upperback -8.99106 0.546374 2.80108
thorax -7.78104 -0.00584172 -0.138432
lowerneck -2.69715 -12.4095 -11.0627
upperneck 16.4272 -17.9073 9.96586
head 7.38008 -8.70349 3.43573
rclavicle 4.87022e-015 -1.98785e-014
rhumerus -51.6307 -30.6069 -56.6867
rradius 28.1772
rwrist 38.9743
rhand 3.75795 -28.9284
rfingers 7.12502
rthumb 29.1846 -56.6602
lclavicle 4.87022e-015 -1.98785e-014
lhumerus -49.3791 22.9768 69.8297
lradius 26.159
lwrist -19.2276
lhand -13.4763 -9.26504
lfingers 7.12502
lthumb 12.634 20.3329
rfemur -6.10344 25.894 25.942
rtibia 2.2413
rfoot -10.496 -23.0897
rtoes 0.163414
lfemur 5.38676 -47.7881 -10.8553
ltibia -4.8842
lfoot -28.5187 55.1919
ltoes 14.0203
57
root 0.624073 17.4538 9.31993 11.0686 -2.77029 -10.1613
lowerback -2.96181 0.224403 5.53403
upperback -8.96675 0.552091 2.80587
thorax -7.73993 -0.00447161 -0.155126
lowerneck -2.70019 -12.3877 -11.0935
upperneck 16.4403 -17.8872 10.0267
head 7.39124 -8.69122 3.46122
rclavicle -1.60519e-014 2.70347e-014
rhumerus -51.6147 -30.6875 -56.6272
rradius 28.1248
rwrist 39.0112
rhand 3.68958 -28.8967
rfingers 7.12502
rthumb 29.1193 -56.6399
lclavicle -1.60519e-014 2.70347e-014
lhumerus -49.3387 23.0211 69.8731
lradius 26.1557
lwrist -19.3217
lhand -13.5343 -9.10679
lfingers 7.12502
lthumb 12.5781 20.4946
rfemur -6.1044 25.884 25.9844
rtibia 2.23839
rfoot -10.4719 -23.0312
rtoes 0.168263
lfemur 5.44514 -47.8753 -10.85
ltibia -4.9047
lfoot -28.6974 55.2801
ltoes 14.1271
58
root 0.623051 17.4548 9.31851 11.0705 -2.83018 -10.1512
lowerback -2.97865 0.226934 5.50511
upperback -8.95548 0.552641 2.8032
thorax -7.71739 -0.00176945 -0.142139
lowerneck -2.71248 -12.3544 -11.1638
upperneck 16.4987 -17.8633 10.1426
head 7.42721 -8.67461 3.50865
rclavicle -8.10048e-015 2.78299e-015
rhumerus -51.6237 -30.672 -56.6184
rradius 28.117
rwrist 38.9486
rhand 3.71005 -28.8208
rfingers 7.12502
rthumb 29.1388 -56.5606
lclavicle -8.10048e-015 2.78299e-015
lhumerus -49.3245 23.015 69.9264
lradius 26.1682
lwrist -19.3579
lhand -13.5 -8.97299
lfingers 7.12502
lthumb 12.6111 20.6263
rfemur -6.11303 25.8871 25.9699
rtibia 2.24159
rfoot -10.4203 -22.9876
rtoes 0.100826
lfemur 5.49074 -47.9072 -10.8992
ltibia -4.91588
lfoot -28.8011 55.3633
ltoes 14.1751
59
root 0.622187 17.4556 9.31648 11.0757 -2.90135 -10.1441
lowerback -2.9752 0.219411 5.46359
upperback -8.96098 0.543522 2.82649
thorax -7.72583 -0.00272092 -0.0941469
lowerneck -2.74284 -12.3148 -11.2652
upperneck 16.6039 -17.8256 10.2267
head 7.47999 -8.65384 3.55032
rclavicle -6.60959e-015 1.63003e-014
rhumerus -51.6646 -30.6945 -56.5115
rradius 28.0829
rwrist 39.0324
rhand 3.73803 -28.7042
rfingers 7.12502
rthumb 29.1656 -56.4394
lclavicle -6.60959e-015 1.63003e-014
lhumerus -49.3744 23.0005 70.003
lradius 26.2144
lwrist -19.2675
lhand -13.5139 -8.94989
lfingers 7.12502
lthumb 12.5978 20.6503
rfemur -6.13876 25.8456 25.9592
rtibia 2.26044
rfoot -10.3519 -22.9029
rtoes -0.105514
lfemur 5.51627 -47.875 -10.9288
ltibia -4.92674
lfoot -28.7746 55.4052
ltoes 14.1921
60
root 0.621642 17.4556 9.31462 11.0919 -2.95501 -10.1486
lowerback -2.98671 0.220958 5.46254
upperback -8.9659 0.544972 2.83115
thorax -7.72455 -0.00185752 -0.0886261
lowerneck -2.75368 -12.2919 -11.3174
upperneck 16.6747 -17.8074 10.2811
head 7.51293 -8.64299 3.5753
rclavicle -1.81888e-014 -8.34896e-015
rhumerus -51.7352 -30.8105 -56.3586
rradius 28.0357
rwrist 39.1836
rhand 3.78712 -28.6488
rfingers 7.12502
rthumb 29.2124 -56.3758
lclavicle -1.81888e-014 -8.34896e-015
lhumerus -49.3836 22.973 70.0742
lradius 26.2267
lwrist -19.1917
lhand -13.6326 -8.95962
lfingers 7.12502
lthumb 12.4833 20.6475
rfemur -6.17547 25.8146 25.9509
rtibia 2.26492
rfoot -10.3169 -22.8217
rtoes -0.148638
lfemur 5.52187 -47.8805 -10.9272
ltibia -4.93678
lfoot -28.7414 55.4581
ltoes 14.2068
